# xmcd CD database file
#
# Track frame offsets:
#	150
#	14502
#	29834
#	46010
#	61842
#	64599
#	77850
#	92873
#	106293
#	120305
#	133999
#	147154
#	160641
#	175397
#	191350
#	206355
#	221526
#	236882
#	252185
#	266492
#	280147
#
# Disc length: 3927 seconds
#
# Revision: 0
# Processed by: cddbd v1.5.2PL0 Copyright (c) Steve Scherf et al.
# Submitted via: CDex 1.51
#
DISCID=2c0f5515
DTITLE=Henry "Red" Allen - 1929-1930 [CD2]
DYEAR=1900
DGENRE=Jazz
TTITLE0=It Should Be You
TTITLE1=Biff'ly Blues
TTITLE2=Felling Drowsy
TTITLE3=Swing Out
TTITLE4=Made A Country Bird Fly Wild
TTITLE5=Funny Feathers Blues
TTITLE6=How Do They Do It That Way
TTITLE7=Pleasin' Paul
TTITLE8=Day Breakin' Blues
TTITLE9=Heart Breakin' Blues
TTITLE10=Leavin' You Baby
TTITLE11=Longing For Home
TTITLE12=It Should Be You
TTITLE13=Feeling Drowsy
TTITLE14=Swing Out
TTITLE15=Singing Pretty Songs
TTITLE16=I Fell In Love With You
TTITLE17=I Got Rhythm
TTITLE18=C Saratog Rag
TTITLE19=C Ease On Down (aka Come On Down)
TTITLE20=Honey, That Reminds Me
EXTD=
EXTT0=
EXTT1=
EXTT2=
EXTT3=
EXTT4=
EXTT5=
EXTT6=
EXTT7=
EXTT8=
EXTT9=
EXTT10=
EXTT11=
EXTT12=
EXTT13=
EXTT14=
EXTT15=
EXTT16=
EXTT17=
EXTT18=
EXTT19=
EXTT20=
PLAYORDER=
